<svg xmlns="http://www.w3.org/2000/svg" width="8.074" height="16" viewBox="0 0 8.074 16">
  <path id="facebook" d="M10.779,15.8A.21.21,0,0,0,11,16h3.12a.21.21,0,0,0,.219-.2V7.937H16.6a.213.213,0,0,0,.218-.185l.217-2.368a.192.192,0,0,0-.057-.153.228.228,0,0,0-.161-.065h-2.48V3.485a.746.746,0,0,1,.774-.714h1.743a.21.21,0,0,0,.219-.2V.2a.211.211,0,0,0-.219-.2H13.91a3.013,3.013,0,0,0-3.13,2.881V5.165H9.219a.211.211,0,0,0-.219.2V7.735a.21.21,0,0,0,.219.2h1.56Z" transform="translate(-9)" fill="#0093e5" fill-rule="evenodd"/>
</svg>
