<svg xmlns="http://www.w3.org/2000/svg" width="22" height="20" viewBox="0 0 22 20"><path d="M19.643,32H2.357A2.258,2.258,0,0,0,0,34.143V49.857A2.258,2.258,0,0,0,2.357,52H19.643A2.258,2.258,0,0,0,22,49.857V34.143A2.258,2.258,0,0,0,19.643,32ZM8.747,42.272c-4.453-2.938-4.408-2.946-5.6-3.792V37.357a1.129,1.129,0,0,1,1.179-1.071H17.679a1.129,1.129,0,0,1,1.179,1.071v1.124c-1.2.847-1.151.854-5.6,3.792-.516.342-1.542,1.166-2.253,1.156C10.288,43.438,9.263,42.615,8.747,42.272Zm10.11-1.979v6.349a1.129,1.129,0,0,1-1.179,1.071H4.321a1.129,1.129,0,0,1-1.179-1.071V40.294c.685.482,1.637,1.127,4.68,3.135A6.044,6.044,0,0,0,11,44.857a6.055,6.055,0,0,0,3.178-1.43C17.221,41.42,18.172,40.775,18.857,40.294Z" transform="translate(0 -32)" fill="#d9e0e6"/></svg>