<svg xmlns="http://www.w3.org/2000/svg" width="16" height="16" viewBox="0 0 16 16">
  <path id="instagram" d="M14.491,11.181a3.31,3.31,0,0,1-3.31,3.31H4.819a3.31,3.31,0,0,1-3.31-3.31V4.819a3.31,3.31,0,0,1,3.31-3.31h6.361a3.31,3.31,0,0,1,3.31,3.31v6.362ZM16,4.819A4.819,4.819,0,0,0,11.18,0H4.82A4.819,4.819,0,0,0,0,4.819v6.362A4.82,4.82,0,0,0,4.82,16h6.36A4.82,4.82,0,0,0,16,11.18ZM8.027,10.634A2.531,2.531,0,1,1,10.558,8.1a2.534,2.534,0,0,1-2.531,2.531Zm0-6.482A3.951,3.951,0,1,0,11.979,8.1,3.956,3.956,0,0,0,8.027,4.152Zm4.182-1.207a.941.941,0,1,0,.941.941.941.941,0,0,0-.941-.941Z" fill="#0093e5"/>
</svg>
