<svg id="Page-1" xmlns="http://www.w3.org/2000/svg" width="16" height="16" viewBox="0 0 16 16">
  <g id="Dribbble-Light-Preview">
    <g id="icons">
      <path id="linkedin-_161_" data-name="linkedin-[#161]" d="M140,7335h-3.2v-5.6c0-1.536-.678-2.393-1.893-2.393-1.322,0-2.107.9-2.107,2.393v5.6h-3.2v-10.4h3.2v1.168a3.857,3.857,0,0,1,3.266-1.761c2.263,0,3.934,1.385,3.934,4.24V7335Zm-14.046-12.063a1.968,1.968,0,1,1,1.953-1.969,1.961,1.961,0,0,1-1.953,1.969ZM124,7335h4v-10.4h-4Z" transform="translate(-124 -7319)" fill="#0093e5" fill-rule="evenodd"/>
    </g>
  </g>
</svg>
