<svg xmlns="http://www.w3.org/2000/svg" xmlns:xlink="http://www.w3.org/1999/xlink" width="40" height="40" viewBox="0 0 40 40">
  <defs>
    <clipPath id="clip-path">
      <rect id="Rectangle_75" data-name="Rectangle 75" width="40" height="40" fill="#fff" stroke="#707070" stroke-width="1"/>
    </clipPath>
  </defs>
  <g id="Mask_Group_9" data-name="Mask Group 9" clip-path="url(#clip-path)">
    <path id="facebook" d="M26.943,39.493a.525.525,0,0,0,.552.5h7.8a.525.525,0,0,0,.547-.5V19.839h5.652a.532.532,0,0,0,.545-.462l.542-5.919a.48.48,0,0,0-.142-.382.57.57,0,0,0-.4-.162h-6.2v-4.2a1.865,1.865,0,0,1,1.935-1.785h4.357a.525.525,0,0,0,.547-.5V.5a.527.527,0,0,0-.547-.5H34.769a7.531,7.531,0,0,0-7.824,7.2V12.91h-3.9a.527.527,0,0,0-.547.5v5.924a.525.525,0,0,0,.547.5h3.9Z" transform="translate(-12.586 0.006)" fill="#0093e5" fill-rule="evenodd"/>
  </g>
</svg>
